<?xml version="1.0" encoding="utf-8"?>
<!-- Generator: Adobe Illustrator 28.3.0, SVG Export Plug-In . SVG Version: 6.00 Build 0)  -->
<svg version="1.1" id="Layer_1" xmlns="http://www.w3.org/2000/svg" xmlns:xlink="http://www.w3.org/1999/xlink" x="0px" y="0px"
	 viewBox="0 0 850.4 850.4" style="enable-background:new 0 0 850.4 850.4;" xml:space="preserve">
<style type="text/css">
	.st0{display:none;}
	.st1{display:inline;}
	.st2{fill:#1D1D1A;}
</style>
<path class="st2" d="M432.1,465c-1-1.5-0.8-2.9,0-4.9c1,0.6,1.7,1.1,2.4,1.6c1.9,1.3,2.8,1.3,4.5-0.3c1-1,2-2.2,2.7-3.5
	c2.4-3.9,5.7-6.5,10.2-7.5c1.8-0.4,3.5-0.8,5.2-1.3c0.9-0.3,1.8-0.7,2.6-1.2c2-1.3,2.1-2.3,0.5-4.3c-0.2-0.2-0.3-0.5-0.6-1
	c2.4-1.4,4.4-0.6,5.1,2c0.8,2.9-0.3,6-3,7.4c-1.6,0.9-3.5,1.5-5.3,2c-4.9,1.3-8.8,4.1-11.8,8.2c-1.2,1.6-2.5,3.2-4.1,4.4
	C437.8,468.6,433.9,467.7,432.1,465z M502.7,415.4c0.3,0.7,1.3,1.2,2,1.7c0.2,0.2,0.6,0,0.9,0.1c3.4,0.3,4.7,1.7,3.8,5
	c-0.6,2.4-1.8,4.8-3.2,6.8c-2.5,3.6-5.3,6.9-8,10.3c-2.9,3.7-4.6,7.9-5,12.5c-0.3,4-0.1,8-0.1,12c0.2,0,0.3,0,0.5,0
	c-0.2,2-0.3,4-0.8,6c-0.8,3.4-2.2,4.3-5.6,4.3c-1.3,0-2.6-0.2-3.8-0.1c-1.8,0.1-2.5,1-1.9,2.8c0.9,2.6,2.5,4.6,5.3,5.4
	c5.3,1.6,13.7-0.9,15.2-8.8c0.5-2.8,0.5-5.7,0.7-8.5c0.2-3.1-0.1-6.2,0.4-9.2c1-7.1,3.8-13.4,8.2-19c2.1-2.7,4.1-5.7,5.5-8.9
	c2.3-5.2,0.3-11.4-4.2-14.8c-2.9-2.2-7.3-2.1-9.3,0.2C503,413.7,502.5,414.8,502.7,415.4z M440.1,349.1c1.5,0.1,1.9-0.9,2.4-2.1
	c1.4-3.4,3.6-4.3,6.6-2.1c2,1.4,3.8,3.4,5.3,5.4c2.4,3.2,4.5,6.7,6.8,10c2.3,3.6,5.5,6.1,9.1,8.2c3.2,1.8,6.7,2.7,10.2,3.5
	c2.9,0.7,5.9,1.8,8.6,3.2c2.7,1.4,3.1,3.2,2.2,6.2c-0.4,1.3-1,2.6-1.4,3.9c-0.5,1.7,0.1,2.5,1.7,2.6c2.5,0.1,4.8-0.6,6.5-2.6
	c1.8-2.2,2.6-4.8,2.7-7.1c0-5-1.7-8.5-5.8-10.7c-3-1.6-6.2-2.8-9.4-3.7c-3.7-1.1-7.2-2.6-10.4-4.6c-5.1-3.2-9.2-7.4-12.6-12.4
	c-1.8-2.6-3.8-5.1-6.1-7.3c-4.4-4-10.8-4.1-15.6-0.7c-2.7,1.9-4,5.2-3.1,8.1C438.2,348,438.7,349,440.1,349.1z M354.8,389.6
	c1.2,0.1,2.4-0.1,2.9-1.4c0.6-1.4-0.2-2.1-1.1-2.9c-3-2.5-3-4.9,0.2-7.2c2.1-1.5,4.6-2.6,7.1-3.4c3.7-1.3,7.5-2.2,11.3-3.2
	c4.2-1.2,7.8-3.4,10.8-6.5c2.1-2.2,3.7-4.9,5.6-7.3c2-2.6,3.7-5.4,6-7.7c2.4-2.5,4.3-2.3,7.1-0.3c1,0.7,2,1.6,3,2.3
	c1.6,1,2.6,0.7,3.2-1.1c0.8-2.5,0.7-5-0.9-7.2c-3-4.2-11.1-7.9-17.4-2.2c-2.5,2.3-4.4,5.1-6.6,7.7c-1.5,1.9-2.8,4-4.5,5.7
	c-4.8,5-10.4,8.6-17.1,10.6c-3.4,1-6.9,2.2-10.1,3.9c-4.6,2.3-6.6,6.4-6.6,12.3c0.2,0.7,0.3,2.2,0.9,3.5
	C349.6,387.8,351.8,389.3,354.8,389.6z M341.1,440c6,7.8,8.9,16.5,8.3,26.4c0.2,2.9,0.2,5.7,0.6,8.6c0.9,6.5,5.5,11,12.1,11.6
	c3,0.3,5.4-0.9,7.1-3.4c1.2-1.8,1.4-3.4,0.4-4.4c-1.5-1.5-2.6-0.3-3.9,0.5c-2.3,1.4-4,1.1-5.4-1.1c-0.7-1.1-1.2-2.3-1.4-3.5
	c-0.3-2.2-0.5-4.4-0.5-6.6c0-3.8,0.3-7.6,0.4-11.5c0.1-3.2-0.6-6.3-1.7-9.3c-1.5-3.9-3.8-7.3-6.6-10.4c-2-2.3-3.8-4.8-5.2-7.5
	c-1.7-3.4-1-5.1,2.1-7.3c1-0.7,2.2-1.4,3.1-2.2c1.1-1,1.1-2-0.1-2.9c-2-1.5-4.2-2.4-6.8-1.7c-5.3,1.4-11.6,8.1-8.1,16
	C337,434.3,339,437.2,341.1,440z M405.8,380c-1,2.4,0,4.3,2.7,4.8c0.1-0.6,0.2-0.9,0.2-1.2c0-2.7,0.7-3.4,3.3-3.2
	c0.9,0.1,1.9,0.4,2.8,0.7c1.7,0.6,3.4,1.3,5,2c4.1,1.8,8.2,1.6,12.3-0.1c1.4-0.6,2.8-1,4.2-1.3c2.3-0.3,3,0.2,3.8,2.4
	c0.3,0.8,0.6,1.7,1,2.6c1.9-0.9,2.9-2,3-3.8c0.2-3.1-2.6-6.4-5.8-6.4c-1.9,0-3.8,0.4-5.6,1c-5.1,1.7-10.2,1.6-15.2-0.4
	c-1.7-0.7-3.4-1.2-5.2-1.3C409.5,375.6,406.9,377.4,405.8,380z M387.2,450.7c1.4,1,2.9,1.7,4.5,2.2c5.4,1.6,9.6,4.8,12.7,9.5
	c0.9,1.4,2,2.8,3.2,3.9c2.4,2.2,5.9,2.2,8.2,0.4c2-1.5,2-3.5,0.1-5.2c-0.3,0.4-0.7,0.7-1,1.2c-1.3,1.9-2.1,2.1-3.8,0.7
	c-0.9-0.7-1.7-1.6-2.3-2.6c-1.2-1.7-2.2-3.4-3.2-5.1c-2.1-3.4-5.3-5.4-9.1-6.5c-1.1-0.3-2.3-0.5-3.4-0.9c-3.3-1.3-3.8-2.5-2.7-5.8
	c0.1-0.4,0.2-0.8,0.4-1.4c-2.7-0.7-3.7-0.3-4.9,1.3C384.1,445.1,384.6,448.9,387.2,450.7z M384.3,425.7c-0.4-0.2-0.7-0.4-1.1-0.5
	c-2.4-0.7-2.8-1.4-2-3.6c0.4-1.1,1-2.1,1.7-3c1.1-1.4,2.3-2.8,3.5-4.2c3-3.4,4-7.4,3.6-11.8c-0.1-1.1-0.2-2.3,0-3.5
	c0.4-3,1.1-3.5,4.1-3.6c0.6,0,1.2,0,2.1,0c-0.6-3.3-1.6-4.3-4-4.5c-3.1-0.2-5.7,1.4-6.5,4.4c-0.4,1.5-0.6,3.1-0.6,4.7
	c0.1,5.7-1.6,10.6-5.2,15c-1,1.2-1.9,2.6-2.6,4c-1.4,3-0.3,6.5,2.2,8.2C381.6,428.7,383.5,428.1,384.3,425.7z M458.9,495.4
	c-1.4,0.9-0.9,2.1-0.6,3.4c0.9,3.2-0.2,4.8-3.6,5.2c-2.7,0.3-5.3-0.1-7.8-1c-3.5-1.3-7-2.5-10.4-3.9c-7.9-3-15.5-2.3-23.1,1.2
	c-2.8,1.3-5.8,2.1-8.8,2.7c-3.5,0.6-5.1-0.7-6.2-4c-0.4-1.3-0.7-2.7-1.2-3.9c-0.6-1.4-1.6-1.7-2.8-0.8c-2.1,1.5-3.7,3.4-3.7,6.3
	c-0.1,7,5.4,12.6,12.4,12.4c3.9-0.1,7.5-1.4,11.1-2.8c4-1.6,8.2-2.2,12.5-2.3c5.3-0.2,10.3,0.9,15.3,2.7c3.3,1.1,6.7,1.9,8.4,2.4
	c7.3,0.1,12.5-3.5,14.2-8.7c1-3,0.4-5.7-1.8-7.9C461.6,495.3,460.4,494.5,458.9,495.4z M455,394.7c0.6,0,1.2,0.1,1.7,0
	c2.1-0.5,3-0.2,3.5,1.8c0.3,1.2,0.3,2.5,0.3,3.8c0,1.7-0.2,3.4-0.3,5.1c-0.4,4.5,1.1,8.3,4,11.7c1,1.1,1.8,2.4,2.4,3.7
	c1,2,0.7,2.8-1,4.1c-0.7,0.6-1.5,1.1-2.2,1.6c2.4,2.3,3.5,2.5,5.7,1.3c2.7-1.6,3.9-4.7,2.7-7.6c-0.6-1.5-1.4-2.9-2.4-4.1
	c-3.4-4.4-4.8-9.3-4.4-14.9c0.1-1.8,0-3.6-0.4-5.4c-0.6-2.8-3.3-4.7-6-4.8c-1.5,0-2.8,0.4-3.5,1.8C454.9,393.3,455,394,455,394.7z
	 M450.6,108.4c-2-1.5-3.9-1.6-5.9-1.3c-1.5,0.2-2.9,1-3.2,2.7c-0.1,0.9,0.3,2.1,0.9,2.7c0.6,0.7,1.7,1.3,2.8,0.2
	c0.3-0.4,0.9-0.8,1.3-0.7C449.2,112.4,449.8,110.5,450.6,108.4z M315,424.9c0.2-60.7,49.5-110,110.2-110
	c60.8,0,110.3,49.6,110.2,110.3c-0.1,60.9-49.7,110.3-110.4,110.1C364,535.2,314.8,485.8,315,424.9z M470.5,492.8
	c-1.7-8.3-7.3-13.8-13.8-19.2c-7.4,6.7-16.4,8.1-25.1,8.5c-0.9,1.5-1.4,2.6-2.2,3.5c-2.4,2.8-6.6,2.6-9.2-0.5
	c-1.2-1.4-2.1-3.1-3.1-4.8c-8.4,1.9-16.2-0.4-24.3-3c-4.6,4.2-8.6,8.6-10.9,14.4c-2.4,6.2-1.5,11.9,2.6,17c3,3.7,6.8,6.5,11.5,7.4
	c3.6,0.7,7.3,1.2,11,1.3c6.8,0.1,13.6,0,20.4-0.2c7.5-0.2,15.1-0.2,22.5-1.7c7-1.4,13.1-4.1,17.5-10
	C470.2,501.6,471.4,497.5,470.5,492.8z M381.2,432.7c6-0.5,11.5-2.7,17.2-5c-1.3-9.5,2.1-17.2,7.9-24.3c-1.9-2.8-3.6-5.6-5.6-8.1
	c-1.8-2.3-3.9-4.5-6-6.5c-2.4-2.2-5.3-2.3-7.9-0.5c-2.2,1.5-4.2,3.3-5.8,5.3c-4.9,6.2-7.8,13.3-9.2,21c-0.7,4-0.8,8,0.4,12
	C373.8,431.3,376.3,433.1,381.2,432.7z M372.3,433.8c-0.8,1.4-1.8,2.8-2.4,4.3c-0.5,1.3-0.2,2.7,1.1,3.6c1.3,1,2.8,1.5,4.5,1
	c0.4-0.1,0.8-0.7,1-1.1c0.7-1.4,1.3-2.8,2-4.3C376.6,436.3,374.6,435.1,372.3,433.8z M391.7,382.8c1.2,0.1,2.5,0.4,3.7,0.6
	c0.5-2.2,0.9-4.3,1.4-6.6c-1.3-1.2-3.1-1.7-5.1-1.4c-2.1,0.3-3.1,1.8-3,4.4C388.8,382,389.3,382.5,391.7,382.8z M379.4,447.5
	c0.6,2.2,1.6,4.4,2.9,6.3c5,7.5,11.6,13.2,19.9,16.7c2.8,1.2,5.9,1.9,8.9,2.1c5.3,0.4,8-2,9-7.3c1-5.4,0.8-10.8,0.4-16.1
	c0-0.3-0.2-0.6-0.5-1.1c-9-1.6-15.2-7.2-20.3-15.1c-4.2,1.4-8.3,2.6-12.3,4c-1.6,0.6-3.1,1.3-4.6,2.2
	C379.4,441.3,378.3,443.5,379.4,447.5z M440.8,404c6.6,6.9,8.5,15.1,7.9,24.2c4.7,2.2,9.4,3.7,14.1,4.7c7.4,1.5,11-1.1,11.9-8.6
	c0.1-0.9,0.2-1.9,0.2-2.9c-0.2-3.4-0.3-6.8-0.8-10.1c-1-6-3.1-11.7-6.6-16.7c-1.8-2.5-3.9-4.8-6.7-6.3c-2.8-1.5-5.5-1.5-8,0.5
	C447.7,393,444.3,398.5,440.8,404z M450.9,380.7c0.4,1.4,0.6,2.9,0.9,4.6c1.1-0.2,2.2-0.5,3.2-0.6c1.1-0.1,2.3,0,3.7,0
	c0.1-1.3,0.3-2.4,0.2-3.5c-0.5-3.8-3.9-5.2-7-2.9C451,378.9,450.6,379.6,450.9,380.7z M471.3,439.6c1,2.1,1.8,4.1,2.9,6.5
	c1.5-0.7,3-1.2,4.4-2c1.3-0.8,1.7-2.1,1.2-3.6c-0.5-1.5-1.3-2.9-3-3.5c-0.4-0.1-1,0-1.5,0.2C474,438,472.6,438.8,471.3,439.6z
	 M425.8,448.6c0,4.1-0.1,8.1,0,12c0.1,2.1,0.3,4.2,0.8,6.3c0.8,3.5,2.6,5,6.1,5.4c1.1,0.1,2.3,0.2,3.5,0
	c12.3-2.1,22.1-8.3,29.1-18.6c1-1.4,1.6-3.2,2.1-4.9c1.1-4,0.1-6.9-3.5-8.9c-3.6-1.9-7.5-3.3-11.4-4.7c-1.8-0.7-3.8-1-5.9-1.6
	C442.1,442,434.8,446.3,425.8,448.6z M426.7,474.5c-0.9-0.8-1.8-1.8-2.7-2.6c-1.8,1.6-3.4,3.1-5.1,4.5c0.6,1.9,1.8,3.3,3.6,4.2
	c1.8,0.9,3.7,0,5-2.1C428.6,476.6,428.4,476.1,426.7,474.5z M437.5,422.5c0.1-7.6-5.7-13.6-13.3-13.7c-7.5-0.1-13.6,5.8-13.7,13.3
	c-0.1,7.5,5.8,13.6,13.3,13.7C431.5,435.9,437.5,430,437.5,422.5z M505.9,406c-8.1-0.5-15.4,2.1-22.4,5.6c0.6,8.2,1.3,16,1.8,23.7
	c0.1,1.3,0.3,2.4,1.5,3.3c1.5,1.2,1.6,2.9,1.1,4.6c-0.8,2.9-2.7,4.8-5.6,5.6c-1.2,0.3-2,0.9-2.8,1.9c-4.3,5.6-8.6,11-12.9,16.6
	c-0.6,0.7-1.1,1.5-1.8,2.3c3.4,5,7,9.8,11.8,13.4c5.7,4.2,11.8,5.1,18.3,2.2c1.9-0.8,3.8-1.8,5.7-2.8c3.9-2,6.8-5,8.7-9
	c1-2,2-4,2.6-6.1c3.1-9.8,6.3-19.6,9.1-29.5c1.2-4.2,1.9-8.8,1.9-13.2C523.3,414.2,516.3,406.7,505.9,406z M429.5,360.9
	c0.3,1.3,0.8,2,2.2,2.3c6.8,1.6,13,4.6,19,8c1,0.6,2,1.1,2.9,1.6c2.8-1.7,5.5-2.9,8.5-1c3,1.9,3.1,4.8,2.4,7.7
	c9.3,5.5,12.7,15,17.4,24.1c6.8-1.9,13.1-4.3,18.3-8.9c3.5-3.1,5.7-6.9,5.9-11.6c0.4-8.2-1.7-15.6-7.6-21.6c-1.7-1.7-3.4-3.5-5.4-5
	c-5.9-4.4-11.9-9-18.1-13c-4.2-2.7-8.7-4.8-13.3-6.8c-5.3-2.2-10.8-2.7-16.5-1.6c-8.9,1.7-14.6,6.7-16,14.7
	C428.6,353.5,428.8,357.2,429.5,360.9z M416.2,371c-4.3,0.5-8.5,1.6-12.2,4.2c-4.1,2.9-5,6.2-3,10.8c2.4,5.4,6.1,9.9,10,14.5
	c8.5-4.2,16.9-3.4,25.8,0.1c3-4.3,5.8-8.2,8.5-12.3c0.6-1,1.1-2.1,1.5-3.2c1.3-3.5,0.8-5.9-2.1-8.2c-2-1.5-4.3-2.8-6.6-3.7
	C431.1,370.6,423.7,370.2,416.2,371z M344.7,385.8c1.7,7.8,7.3,11.9,14.5,14.1c1.9,0.6,3.9,0.7,5.7,1.1c5.4-9.1,12.2-16.6,18.8-24
	c-0.9-4.7,0.4-7.5,4.2-8.4c1.4-0.3,3-0.2,4.4,0c1.5,0.3,3,0.9,4.6,1.5c6-6.5,14.2-7.2,22.5-8.4c0.4-4.9,0.3-9.7-1-14.3
	c-1.2-4.4-3.9-7.5-8-9.3c-5-2.1-10.1-3-15.5-2.6c-4.8,0.4-9,2.3-13,4.8c-9.8,6.2-19,13.1-27.8,20.7c-1.8,1.5-3.3,3.3-4.8,5
	C344.2,371.8,343.1,378.6,344.7,385.8z M335.4,411.6c-5.4,7.7-6.4,16-4.2,24.9c3.1,12,7.1,23.7,11.8,35.2c0.7,1.8,1.6,3.5,2.6,5.1
	c1.2,1.9,2.5,3.7,4.1,5.3c8.8,8.7,21.1,8.1,29-1.4c2.7-3.3,4.8-7,6.3-11.1c-6.2-7-10.8-15-15.2-23.2c-0.6-1.2-1.4-1.5-2.7-1.8
	c-4.6-1-6.4-6.3-3.6-10c0.5-0.7,1.1-1.2,1.7-1.9c-4.4-7.6-3.5-15.8-2.9-24.6c-3.8-1.1-7.4-2.2-11.1-3.1
	C344.5,403.5,339.4,405.9,335.4,411.6z M812.3,429.5c-2.3,211-174.8,384.7-390.8,382.8C210.2,810.4,38.4,638.9,38,425.2
	C38.4,209.1,214,36.9,427.2,38.1C641.6,39.2,814.6,214.8,812.3,429.5z M800.4,446.7c1.8-28,0.1-55.8-4.5-83.5
	c-6.3-37.7-18.1-73.7-35.4-107.9C715.3,166.3,636.2,98.5,541.3,67.7c-33.6-10.9-68.1-16.9-103.5-18.1c-21.5-0.7-42.9,0.3-64.2,3.3
	c-4,0.6-8,1.3-12.5,2c2.8,4.1,5.4,7.7,8,11.5c1.2-0.1,2.3-0.3,3.5-0.4c6.4-0.8,12.8-1.6,19.3-2.3c11.9-1.2,23.9-1.6,35.9-1.4
	c1.7,0,2.6-0.6,3.6-2c1.8-2.5,3.7-4.9,5.9-7c2-1.9,4.6-2.6,7.4-2.2c5.6,0.9,9.7,5.4,10.1,11.1c0,0.4,0.2,0.8,0.2,1
	c95.3,9.4,175.8,48.4,239.7,119.5c64,71.1,95.2,155.2,93.3,250.7c-3.9,185.8-147.7,336.1-328.1,353.3
	c-179.4,17.1-340.5-99.1-385.6-268.3C59,461.1,58,403.5,70.9,345.6c12.6-56.4,37.4-107,74.4-151.4C200.5,128,270.6,86.5,354.9,68.8
	c-0.8-1.9-1.9-3.5-2.3-5.3c-0.4-1.8-0.3-3.8-0.5-5.7c0-0.4-0.2-0.7-0.3-1.1c0,0,0,0,0.1,0v0c0,0,0-0.1,0-0.1
	c2.9-0.6,5.9-1.1,9.4-1.8c-1.9-1.9-3.2-3.6-4.8-4.9c-2.1-1.7-3.4-1.1-4,1.5c-0.3,1.7-0.5,3.5-0.7,5.2c0,0-0.1,0-0.1,0
	c0,0,0,0,0.1,0.1l-0.1-0.1c0,0,0,0.1,0,0.1c-5.4,1.2-10.8,2.2-16.1,3.5C262.5,78.4,200,115,149,170.5
	c-60.3,65.6-93.1,143.4-99,232.3c-1.5,23.2-0.6,46.3,2.3,69.3c3,24.1,8.1,47.7,15.9,70.7c27.5,81.8,77.1,147,148.7,195.2
	c55,37,115.9,57.4,182,62.1c25.1,1.8,50.1,1,75-2.3c24.2-3.1,47.8-8.5,70.9-16.3C606,760.8,658.7,726.8,702.2,679
	C762.1,613.2,794.7,535.6,800.4,446.7z M362.7,81.2c-0.5-0.8-1.1-1.5-1.6-2.2c-14.5,2.7-28.6,6.2-42.8,10.7c0.3,1.2,0.6,2,0.8,2.8
	c17.9,53.1,35.9,106.3,53.8,159.4c0,0.1,0.2,0.1,0.2,0.1c0.1,0,0.2,0,0.3-0.1c0.1-8.8,0.3-17.6,0.4-26.4c0.2-24.1,0.4-48.2,0.6-72.3
	c0.1-16.3,0.2-32.7,0.4-49c0-1.8-0.3-3.3-1.3-4.8C370.1,93.3,366.4,87.2,362.7,81.2z M373.9,88.7c1.1-4.1,0-6.8-2-9.3
	c-1.7-2.2-1.7-2.3-4.9-0.9C369.2,81.7,371.4,84.9,373.9,88.7z M418.1,77.1c0.7-1.2,1.3-2.3,2.3-3.9c-12.4,0.1-24.3,0.9-36.3,2.3
	c0,1.5,0,2.8,0,4c0.1,3.1,0.3,6.1,0.3,9.2c0,1.9,0.6,3.5,1.6,5c8,12.6,16,25.2,24.1,37.8c0.4,0.7,0.9,1.4,1.7,2.4
	c0.4-0.8,0.7-1.1,0.8-1.5c2.8-7.6,5.5-15.1,8.4-22.7c0.5-1.3,0.3-2.4,0-3.7c-1.6-6.4-3.1-12.8-4.7-19.1
	C415.2,83.5,416.3,80.2,418.1,77.1z M424,86.4c-0.7-0.9-1.4-1.7-2.6-3c-0.8,5.4,1.1,9.2,3.7,13c10.2-2.3,20.5-1.1,30.5-0.1
	c3.8-6.4,4.1-8.1,1.9-10.4c-0.2,0.1-0.5,0.1-0.6,0.2c-1.2,1.2-2.4,2.4-3.5,3.7c-4.3,4.8-9.4,4.2-12.1-1.6c-0.5-1.2-1.5-2.2-2.2-3.3
	c-0.3,0-0.7,0-1,0.1c-0.7,1.3-1.4,2.5-2,3.8c-2.1,3.9-6.1,4.5-9.2,1.4C425.7,89.1,424.9,87.6,424,86.4z M425,78.7
	c1.1,2.3,2.7,4.5,4.5,6.4c1.5,1.7,3.4,0.9,3.5-1.3c0.2-3.4,0.1-6.9,0.1-10.7c-1.8,0-3-0.1-4.3,0C425.8,73.3,423.8,76.1,425,78.7z
	 M438.8,77.1c0.9,0.5,2.3,1,3.1,0.7c0.8-0.3,1-1.8,1.6-2.9c-0.7-1.6-1.1-3.1-2-4.3c-1.2-1.7-2.6-1.5-3.8,0.2
	C435.9,73.2,436.2,75.5,438.8,77.1z M446.8,76.2c0,2.5-0.1,5.1,0.1,7.6c0.2,2.5,1.8,3.3,3.6,1.7c1.7-1.5,3.1-3.5,4.3-5.4
	c0.5-0.8,0.5-2.3,0.1-3.3c-1-3-4.2-4.7-8-4.2C446.8,74,446.8,75.1,446.8,76.2z M466,87.4c-0.8,2.1-1.6,4.2-2.3,6.3
	c-1.8,4.9-3.5,9.8-5.2,14.7c-0.8,2.1-0.7,4.1,0.4,6.1c2.4,4.7,4.8,9.5,7.1,14.2c1.2,2.3,2.8,4.2,4.9,5.7
	c6.9,5.2,13.8,10.5,20.8,15.8c0.5,0.4,1.2,0.7,2.1,1.2c0-24.1,0-47.8,0-71.7c-11.3-2.2-22.5-4-34.6-4.9c1.1,1.3,1.7,2,2.3,2.7
	c1.1,1.2,2.2,2.3,3.3,3.5C466.3,82.9,467,85,466,87.4z M570,745.9c18.3-6.4,65.7-36,78.4-48.9c-44.6-52.7-89.1-105.3-133.7-158
	c-8.9,7.1-18.3,12.7-28.4,17.6C514.3,619.9,542.2,682.9,570,745.9z M447.4,568.5c-11.3,1.6-22.3,2.2-33.4,1.2
	c-5.9,69-11.9,137.5-17.8,206.4c31.2,2.8,61.7,0.9,92.3-4.7C474.8,703.6,461.1,636.1,447.4,568.5z M707.6,635.3
	c18.6-25,33.5-51.6,45-80.6c-64.7-24.8-129-49.4-193.5-74.2c-4.4,10.5-9.8,19.9-16.2,29.1C597.9,551.6,652.7,593.4,707.6,635.3z
	 M774.2,472.2c4-30.9,4.2-61.3,0.2-92c-68.6,9.4-136.7,18.8-205.2,28.2c1.1,11.1,1.1,21.9,0.1,33
	C637.7,451.7,705.7,461.9,774.2,472.2z M753.5,297.9c-11.2-28.8-25.8-55.3-44-80.2c-55.6,41.3-110.8,82.4-166.3,123.7
	c6.4,9,11.5,18.4,15.8,28.4C624,345.7,688.7,321.8,753.5,297.9z M651.6,156c-14.3-14.1-63.7-45.7-76.7-49
	c-28.6,62.6-57.3,125.3-85.9,187.9c4.8,2.8,9.4,5.3,13.8,8.1c4.5,2.9,8.7,6,13.3,9.2C561.3,260.1,606.4,208,651.6,156z M467.5,247.4
	c0.5-2.1,2.8-2.6,4.2-0.9c0.6,0.8,1.1,1.8,1.3,2.8c0.4,1.5,0.5,3.1,0.8,4.7c0.3,1.4,0.6,2.7,1,4.1c0.3,0,0.6,0,0.9,0
	c0.2-0.6,0.6-1.1,0.6-1.7c-0.1-6.4-0.2-12.7-0.3-19.1c0-1.9-1.2-2.5-2.8-2.9c-1.7-0.5-3.4-1-5-1.8c-3-1.3-4-1-4.7,2.2
	c-0.6,2.8-1,5.6-1.1,8.5c-0.3,12.5,2.2,24.6,5.9,36.5c0.3,1,0.8,2,1.3,2.9c1.5,2.6,2.9,3.1,6.4,2c-0.3-1.1-0.6-2.2-0.9-3.2
	c-0.9-2.6-2.1-5.1-2.7-7.8c-1.7-7.9-3.3-15.8-4.8-23.7C467.2,249.3,467.2,248.3,467.5,247.4z M457.3,281.1c-0.7,0-1.4,0-2,0
	c-0.6,1.5-0.2,2.3,1.1,2.6c2.2,0.5,4.5,1.1,6.7,1.6c1.6-4.5-0.6-14.9-4.3-20.7c-2.6,2.1-2.6,2.1-6.6,1.8c-0.3,2.5,0.1,4.8,0.9,7
	c0.4,1.1,1.1,1.7,2.4,1.6c3.1-0.2,4,0.7,4.2,3.5C459.9,280.6,459.5,281.1,457.3,281.1z M439.1,156c0.6-0.2,1.2-0.4,2.3-0.8
	c-4.1-1.7-7.4-3.2-10.9-4.5c-3.3-1.1-6.7,1.1-7.2,4.9c1-0.2,1.9-0.1,2.7-0.5c2.9-1.2,3.3-1.1,4.8,1.8c1.1,2.2,2.2,4.4,3.4,6.5
	c1.1,1.8,1.2,3.6,0.4,5.5c-0.5,1.1-1,2.1-1.3,3.2c-0.5,1.5-0.8,3,0,4.5c3.5-1.5,6-6.4,4.9-9.6c-0.7-2.1-1.7-4.2-2.2-6.3
	C435.5,157.9,436.4,156.8,439.1,156z M415.1,232.3c-1.9,0.5-3.2,0.8-4.5,1.1c-0.8,2.2-0.3,9.2,0.9,10.9c0.8,1.2,2.3,1.5,4.3,0.9
	c1.5-0.4,1.6-1.5,1.5-2.7c-0.4-7.3-2-14.4-3.8-21.7c-4.1,2-4.7,4.9-1.8,7.8C412.7,229.6,413.6,230.7,415.1,232.3z M396,247.9
	c-0.1-3.1,1.2-4.4,3.9-4.6c1,6.3,2.2,12.5,3,18.8c0.7,6.4,1,12.8,1.5,19.6c1.9-0.3,3.7-0.5,5.5-0.8c0.5-8.7,0.1-16.9-1.5-25.1
	c-1.9-9.4-3.9-18.7-3.6-28.4c0.1-4-1.6-6.3-5.9-8.1c-2.6,4.7-5,9.6-6.2,14.9c-1.2,5.7-2.2,11.5-3.1,17.2c-1.2,7.4-2.2,14.9-3.3,22.3
	c-0.4,2.5-1.1,5-1.5,7.5c-0.2,1.3,0,2.6,0.1,4.5c3.1-0.7,5.4-1.4,7.8-1.8c1.9-0.4,3-1.3,3.3-3.2c0.1-0.8,0.4-1.6,0.6-2.5
	c1.3-6.7,1.2-13.5,0.4-20.3C396.5,254.7,396.1,251.3,396,247.9z M422,174.4c-3.5,1.7-5.2,4.8-6.1,8.4c-0.4,1.4,0.7,2.4,2.1,2.6
	c2.7,0.2,8.9-5.8,8.8-8.5C426.7,174.7,424.2,173.3,422,174.4z M428.4,166.2c0-1.3,0-2.5,0-3.7c-1.6-0.4-1.9,0.3-1.9,1.4
	C426.5,165.1,426.3,166.4,428.4,166.2z M415.1,152.6c-9.5-15.5-18.8-30.9-28.2-46.4c-0.5-0.9-1.1-1.7-1.7-2.6
	c-0.8,2-0.7,3.7,0.4,5.5c10,16.3,19.9,32.6,29.8,48.8c0.3,0.5,0.8,1,1.5,1.7C417.1,156.8,416.4,154.7,415.1,152.6z M397.2,170.1
	c2.5-1.6,4.8-3.4,7.2-5.2c1.2-0.9,2.3-1.9,3.2-3c1-1.4,0.6-2.8-1.1-3.2c-1.7-0.5-3.5-0.4-5.3-0.7c-2.2-0.3-4.4-0.5-6.5-1.2
	c-3.6-1.3-6.8-0.8-10.2,0.9c0,6,0,11.9,0,18.2c2.6-1,4.9-1.8,7.1-2.8C393.6,172.2,395.5,171.3,397.2,170.1z M393.9,180.3
	c-0.1-0.3-0.9-0.7-1.3-0.6c-0.6,0.2-1.3,0.7-1.5,1.3c-0.3,0.7-0.1,1.5-0.1,3c1.3-0.8,2.2-1.1,2.7-1.7
	C394.1,181.8,394.1,180.9,393.9,180.3z M406.4,214.7c0.3-0.6,0.7-1.1,0.9-1.6c0.7-2.5,1.4-5.1,1.9-7.7c0.4-1.9,0.7-4-1.4-5.4
	C404.5,204.9,403.9,211,406.4,214.7z M411.5,194c0.2-1.5,0.4-2.8-1.3-3.1c-1-0.2-1.7,0.3-1.7,1.4C408.5,193.9,409.7,194.1,411.5,194
	z M411.6,175.5c1.7-0.1,3.4-1.9,3.5-3.6c0-1.5-1.3-2.5-3.4-2.5c-1.8,0-3,1-3,2.5C408.7,173.8,410.1,175.6,411.6,175.5z M385.1,150
	c3.8-3.1,7.6-6.1,11.5-9.2c-3.9-6.8-7.6-13.3-11.4-19.8C384.1,126.5,384.3,147.7,385.1,150z M384.5,198.4c0.1,3.7,0.3,7.3,0.9,11
	c0.6,3.2,0.4,6.9,0,10.1c-0.4,3.6-0.3,7.1-0.5,10.7c0,0.7,0.2,1.3,0.3,2c1.9-0.2,2.7-1.4,3-2.8c0.4-1.7,0.6-3.6,0.6-5.3
	c0.1-6.1,0-12.3,0-18.4c0-1,0.1-2,0.2-3.6c1.5,0.7,2.6,1.2,3.6,1.9c1.3,0.9,2.5,2,3.8,2.9c2.6,1.7,4.1,0.9,4.5-2.1
	c0.4-2.4,0.9-4.8,1.6-7.1c0.5-1.9,1.4-3.8,1.9-5.7c0.6-2.3,1-4.8,0-7.2c-3.2-0.7-5.9,0-8.6,1.6c-4,2.4-7.5,5.6-10.5,9.1
	C384.8,196.2,384.5,197.4,384.5,198.4z M412.6,253.1c-0.1,3.3,2.6,6.8,6.7,8c0.5-3.2-0.1-6.1-0.6-9c-0.2-1.1-2.9-2-4.4-1.7
	C412.7,250.7,412.6,251.9,412.6,253.1z M415,270.9c0.2,2.4,3,5.3,5.8,5.9c0.2-3.4,0.7-6.8-0.5-10.2c-1.2,0.5-2.2,0.9-3.1,1.2
	C415.3,268.3,414.8,268.9,415,270.9z M421.7,241.3c1.1,10,2.5,20,3.7,30c0.4,2.9,0.6,5.8,0.9,8.9c1.7,0,3,0,4.4,0
	c0.2-0.3,0.4-0.6,0.5-0.8c0.4-1,0.7-2,1-3c2.5-8.6,3.6-17.4,3.8-26.4c0.3-19.1-1-38.2-2.1-57.2c0-0.8-0.3-1.6-0.5-2.4
	c-2.1,0.3-4,0.4-5.8,0.9c-1.1,0.3-2.4,1-3.1,1.9c-1,1.3-1.8,2.9-2.4,4.4c-2.2,5.8-3.3,11.9-2.9,18.1
	C419.9,224.3,420.7,232.8,421.7,241.3z M444.6,136.8c1.1-0.9,2.2-2.1,2.9-3.3c4.4-7.9,6-16.5,5-25.5c-0.5-4-1.6-5-5.6-5
	c-4.3,0-8.7,0.2-13,0.5c-1.2,0.1-2.3,0.7-3.4,1c0.1,0.3,0.1,0.7,0.2,1c1.4,0.1,2.9,0.2,4.3,0.4c2.2,0.3,2.7,1,2.6,3.2
	c0,1.5-0.2,3-0.2,4.5c0,2.5,1.2,4.2,3.6,5c1.4,0.5,2.9,0.8,4.3,1.3c1.3,0.5,2.9,0.8,3.5,2.4c-1.6,1.1-1.6,1.1-2.8,1
	c-5-0.8-9.9-1.1-14.8,0.7c-1.5,0.5-2.5-0.6-1.9-2.1c0.2-0.6,0.6-1.1,1.1-1.5c1.7-1.7,2.1-3.9,2.6-6c0.3-1.5-0.1-2.7-1.6-3.4
	c-1.9-0.9-3.3-2.3-4.3-4.1c-0.2-0.3-0.6-0.4-1.2-0.8c0,0.9-0.1,1.4,0,1.9c0.8,5.7,1.4,11.4,2.3,17c0.6,3.7,1.6,7.3,3.9,10.3
	C435.3,139.4,440.6,140.1,444.6,136.8z M450.2,146.3c-0.9,0.3-1.8,0.9-2.6,1.4c0,0.3,0.1,0.5,0.1,0.8c0.9,0.2,1.9,0.6,2.8,0.6
	c2.2,0,4.4-0.2,6.7-0.2c4.7,0,7.9-2.6,10.7-6c0.6-0.7,0.9-2.2,0.5-2.8c-0.4-0.7-1.8-1.2-2.7-1.1c-1.3,0.2-2.6,0.8-3.8,1.5
	C458.1,142.8,454.3,144.9,450.2,146.3z M458.3,137.7c0.2-1.3-0.7-2.1-1.9-1.8c-1.6,0.4-2.5,1.6-2.7,3.3
	C456.4,140.6,458,140,458.3,137.7z M458.7,199.1c-1,1.1-1.9,2.1-2.8,3.2c1.9,1,3,0.3,4-0.7c2.1-2,1.9-5.6-0.3-8.4
	c-1.7-2.2-3.5-2.4-6.4-0.4c-1,0.7-2,1.6-2.8,2.5c-0.7,0.7-1.1,1.8-0.1,2.5c0.4,0.3,1.6-0.1,2.2-0.5c0.9-0.5,1.4-1.9,3.4-1.1
	c-1.2,1.4-2.2,2.6-3.3,4c1.3,0.9,2.1,0.5,3.1,0C456.5,199.7,457.1,198.4,458.7,199.1z M444.2,178.7c2.8,1.4,4.9,1.4,5.7,0.2
	c0.8-1.3,0-3.5-1.9-5.1c-0.1,0-0.2,0-0.5,0C447,175.7,447,178,444.2,178.7z M445.1,185.5c0.3,2.1,1,2.9,2.6,2.8
	c1.4-0.2,2.7-0.6,2.3-2.8C448.3,185.5,446.7,185.5,445.1,185.5z M450.8,255.7c0.2,0.9,0.6,1.9,1.1,2.6c1.3,1.8,4.2,1.9,5.5,0.2
	c2.2-2.8,0.8-6.7-2.6-7.2c-1.7-0.3-2.8-0.8-3.3-2.5c-0.5-1.7-0.4-3.4,1.1-4.7c1.3-1.1,2.6-2.2,3.8-3.4c1.8-1.7,1.8-2.4,0.3-4.3
	c-1.2-1.5-2.7-2.7-3.9-4.2c-1.8-2.1-1.2-3.7,1.5-4.3c0.9-0.2,1.9-0.2,2.8-0.4c1.2-0.2,2-1,1.6-2.3c-1.1-3.5-2.5-6.7-5.2-9.7
	c-2,1.7-2.3,3.7-2.7,5.6C448,232.8,448.8,244.3,450.8,255.7z M476.7,226.1c2.3-2.1,3.3-8.4,1.6-11c-0.4-0.6-1.4-1.3-2-1.2
	c-0.8,0.1-1.7,0.9-2.1,1.6c-0.4,0.8-0.5,1.8-0.5,2.8c0,1.3,0.2,2.5,0.2,3.8c0,2.7-1.1,3.5-3.6,2.5c-1.9-0.8-3.5-2.1-4.5-3.9
	c-2.1-3.6-4.1-7.2-6.2-10.7c-0.7-1.1-1.2-2.5-3-2.9c-0.1,0.7-0.2,1-0.2,1.3c1.8,5.9,4.4,11.5,9,15.8c1.7,1.6,3.8,2.7,6.1,3.2
	C473.5,227.6,475.2,227.4,476.7,226.1z M465.9,185c-2.4-0.7-2.7-0.6-3.3,1c-1.4,3.8,2.2,11.2,6,12.5c1.8,0.6,4.8-1.1,4.2-2.5
	c-1-2.7-1.7-5.7-4.4-7.2c-1.5,0.1-1.9,2.3-3.5,1.4C463.5,188.2,466,187,465.9,185z M469.8,203.2c-0.4,1.9,0.2,3.6,1.6,4.9
	c0.5,0.5,1.8,0.8,2.5,0.5c1.8-0.7,2.2-2.4,2.2-3.9c0-2.4-0.9-3.9-2.2-4C472.5,200.5,470.1,201.9,469.8,203.2z M482.6,212.9
	c0.5,1,1.5,1.8,2.2,2.7c0.3,0,0.5-0.1,0.8-0.1c1.1-4,0.4-8.7,4.2-12c0.8,2.2,1.4,4.2,2.1,6.3c1.7-1.2,1.5-2.5,1.5-3.7
	c0.1-4.2-0.2-8.5,0.1-12.7c0.2-3.2-1-5.3-3.4-7.3c-6.7-5.3-14.2-8.9-22.5-10.8c-1.6-0.4-3.3-0.8-4.9,0.3c0.3,1.4,1.4,1.8,2.3,2.1
	c3.8,1.3,6.1,4,7.4,7.8c1.6,4.8,3,9.7,4.8,14.5C478.8,204.3,480.7,208.6,482.6,212.9z M477.9,172.8c0.8,0,2.1-0.2,2.4-0.8
	c0.4-0.8,0.6-2.3,0.1-2.9c-0.8-1-2.1-1.7-3.3-2c-0.5-0.1-1.3,1-1.9,1.6c-0.6,0.6-1,1.3-1.6,2C474.8,172.4,476.4,172.7,477.9,172.8z
	 M488.7,176.9c1.9-0.2,1.7-1.5,1.4-3c-1.6-0.2-3.1-0.5-3.5,1.3C486.3,176.1,487.5,177.1,488.7,176.9z M484,230.9
	c-0.3-0.8-1.8-0.6-2,0.4c-0.2,1.2-0.1,2.4-0.1,3.5c1.2,0.5,2,0.2,2.2-0.9C484.3,233,484.3,231.8,484,230.9z M480,249
	c0.5,1.3,0.8,3.1,1.7,4.6c0.8,1.4,2.2,1.4,3.2,0.4c1.8-1.8,2.5-8.3,0.9-10.3c-0.6-0.8-2-1.5-2.9-1.4c-0.8,0.1-1.7,1.2-2,2.1
	C480.4,245.7,480.3,247.1,480,249z M486.1,270.6c1.9,0.4,2.8-0.3,2.8-2.9c-0.1-1.4-1.2-2.9-2.8-4c-1.3-0.9-2.3-0.7-3.2,0.6
	C481,267,482.5,269.9,486.1,270.6z M490.4,279.8c-0.1-1.3-0.2-2.3-0.3-3.3C488.1,278.2,488.1,278.5,490.4,279.8z M493.3,256.6
	c0.8-2.6,0.9-16.3,0.1-18.4C490.6,242.6,490.5,253.8,493.3,256.6z M494.1,228.8c-0.8-3,0.6-6.1-2.4-8.5
	C489.4,223.6,490.3,226.5,494.1,228.8z M490.8,156.9c-4.9-3.6-10.1-6.5-15.8-8.8c-1.6-0.6-3.1-0.6-4.6,0c-3.5,1.6-6.9,3.1-10.4,4.8
	c-0.9,0.4-1.6,1.3-2.6,2.1c0.6,1.2,1.1,2.3,1.7,3.2c1.3,1.9,1.5,3.9,0.6,6c-2.2,5.4-0.5,5.2,4,5.2c0.5,0,1.2,0.1,1.6-0.2
	c1-0.7,2.2-1.3,2.8-2.3c0.8-1.3-0.6-2.1-1.4-2.9c-0.2-0.1-0.4-0.3-0.5-0.4c-0.4-0.7-1.2-1.6-1-2.1c0.3-0.7,1.3-1.5,2.1-1.6
	c2-0.1,4.1-0.3,6,0.3c4.8,1.6,9.5,3.6,14.2,5.4c1.3,0.5,2.5,1.2,3.8,1.6c1.5,0.5,2.3,0,2.5-1.5C494.3,162.4,494.1,159.3,490.8,156.9
	z M419.1,136.2c-3.9-0.5-6.4,2.6-5,6.2c0.7,1.8,2.2,3.3,3.4,4.9c0.3,0.4,1,0.4,1.9,0.7c-0.2-1.3-0.4-2.2-0.6-3c1.5-1,2.8-1.1,4,0.3
	c1,1.1,2.1,1,3.1,0.2c0.9-0.7,1.8-1.5,2.5-2.4c0.9-1.1,0.7-2.2-0.4-3C425.3,138.1,422.4,136.7,419.1,136.2z M292.6,424.9
	c0,73.5,59.2,132.9,132.5,132.9c73.2,0,132.5-59.2,132.6-132.5c0.2-73.1-59.4-132.7-132.4-132.7
	C352.1,292.6,292.7,351.8,292.6,424.9z M120.6,249.2c-11.2,16-31.4,64.4-35.1,83.9c67.1,16.4,134,32.8,200.5,49.2
	c4.4-9.9,8.6-19.5,12.9-29.5C239.8,318.4,180.2,283.8,120.6,249.2z M323.2,321.5c8.4-6.6,16.6-13.1,25.1-19.8
	c-35.4-58.8-71-117.9-106.6-177c-26.2,16.1-49.5,34.9-70.6,57C222,228.5,272.7,275.1,323.2,321.5z M73.2,416.8
	c-0.7,30.7,2.5,60.8,9.7,90.9c67-18,133.5-35.9,200.2-53.8c-2.2-10.8-2.9-21.4-2.9-32.3C211.1,420,142.3,418.4,73.2,416.8z
	 M112.6,587.1c14.3,27.5,31.7,52.4,52.6,75.3c50-48,99.7-95.7,149.5-143.5c-7.2-8.5-13.1-17.4-18.3-27.2
	C235,523.6,173.9,555.3,112.6,587.1z M229.7,718c25.8,17.3,53.1,30.8,82.7,40.9c20.7-66.1,41.3-131.9,61.9-197.9
	c-10.6-4-20.2-9.1-29.5-15.1C306.4,603.3,268.1,660.5,229.7,718z M438.2,125.7c-1.6,0.2-3.3,0-5.2,0c1.8,2.1,3.9,2.9,6.5,2.6
	c1.9-0.2,2.8-1.2,3.3-3.5C441.1,124.3,439.7,125.6,438.2,125.7z M850.4,425.2c0,113.6-44.2,220.3-124.5,300.7
	S538.8,850.4,425.2,850.4s-220.3-44.2-300.7-124.5S0,538.8,0,425.2s44.2-220.3,124.5-300.7S311.6,0,425.2,0s220.3,44.2,300.7,124.5
	S850.4,311.6,850.4,425.2z M840.3,428.2C841.9,199,657.6,12.2,429.1,10.1c-231-2.2-419,184.4-419,415
	c-0.1,228,183.8,413.9,412.4,415.2C653.8,841.7,838.7,655.2,840.3,428.2z"/>
</svg>
